<svg xmlns="http://www.w3.org/2000/svg" width="15.72" height="15.723" viewBox="0 0 15.72 15.723">
  <g id="Group_2122" data-name="Group 2122" transform="translate(-423 -310)">
    <path id="Path_670" data-name="Path 670" d="M.148,15.216l.37.349c.308.329,1.027.123,1.582-.431L15.125,2.108c.555-.555.76-1.274.452-1.6l-.37-.349C14.9-.172,14.18.033,13.6.609l-13,13c-.575.575-.76,1.294-.452,1.6" transform="translate(423 310)" fill-rule="evenodd"/>
    <path id="Path_671" data-name="Path 671" d="M.5,6.757l-.349.349C-.16,7.414.025,8.133.6,8.709l13,13c.575.575,1.294.781,1.6.452l.37-.349c.308-.329.1-1.048-.452-1.6L2.1,7.188C1.545,6.634.826,6.428.5,6.757" transform="translate(423 303.401)" fill-rule="evenodd"/>
  </g>
</svg>
