<svg xmlns="http://www.w3.org/2000/svg" xmlns:xlink="http://www.w3.org/1999/xlink" width="638.923" height="665.027" viewBox="0 0 638.923 665.027"><defs><clipPath id="clip-path"><rect id="Rectangle_2545" data-name="Rectangle 2545" width="638.923" height="665.027" fill="none"></rect></clipPath></defs> <g id="Group_3730" data-name="Group 3730" clip-path="url(#clip-path)"><path id="Path_45110" data-name="Path 45110" d="M586.753,630.873H72.275a54.939,54.939,0,0,1-54.939-54.939h0a54.939,54.939,0,0,1,54.939-54.939H586.753a54.939,54.939,0,0,1,54.939,54.939h0a54.939,54.939,0,0,1-54.939,54.939" transform="translate(-9.183 -275.962)" fill="#f7f7f7"></path> <path id="Path_45111" data-name="Path 45111" d="M636.511,848.8H126.069c-.372,0-.744-.006-1.11-.017a47.089,47.089,0,0,0,0-94.147c.366-.011.738-.017,1.11-.017H636.511a47.091,47.091,0,1,0,0,94.182" transform="translate(-66.189 -399.71)" fill="#f7f7f7"></path> <path id="Path_45112" data-name="Path 45112" d="M599.1,1034.52H39.824a39.824,39.824,0,0,1,0-79.648H599.1a39.824,39.824,0,0,1,0,79.648" transform="translate(0 -505.78)" fill="#f7f7f7"></path> <path id="Path_45113" data-name="Path 45113" d="M768.486,1250.483H506.427a26.812,26.812,0,0,1,0-53.624H768.486a26.812,26.812,0,0,1,0,53.624" transform="translate(-254.044 -633.957)" fill="#f7f7f7"></path> <path id="Path_45114" data-name="Path 45114" d="M671.11,374.6H389.728a23.836,23.836,0,1,1,0-47.672H671.11a23.836,23.836,0,0,1,0,47.672" transform="translate(-193.807 -173.166)" fill="#f7f7f7"></path> <path id="Path_45115" data-name="Path 45115" d="M1163.54,374.6h0a23.836,23.836,0,1,1,23.836-23.836A23.836,23.836,0,0,1,1163.54,374.6" transform="translate(-603.683 -173.166)" fill="#f7f7f7"></path> <path id="Path_45116" data-name="Path 45116" d="M885.52,103.238a2.7,2.7,0,0,1-.414-.032c-.02,0-2.023-.32-5.653-.743a2.616,2.616,0,0,1,.605-5.2c3.752.436,5.785.759,5.87.772a2.616,2.616,0,0,1-.408,5.2" transform="translate(-464.607 -51.511)" fill="gray"></path> <path id="Path_45117" data-name="Path 45117" d="M403.194,515.251a2.605,2.605,0,0,1-1.192-.289c-3.459-1.774-6.915-3.582-10.274-5.373a2.616,2.616,0,0,1,2.463-4.617c3.334,1.779,6.766,3.574,10.2,5.335a2.617,2.617,0,0,1-1.2,4.944M377.78,501.54a2.6,2.6,0,0,1-1.29-.342c-3.384-1.924-6.758-3.886-10.031-5.833a2.616,2.616,0,0,1,2.676-4.5c3.242,1.93,6.587,3.874,9.94,5.781a2.617,2.617,0,0,1-1.3,4.891m-24.729-14.9a2.606,2.606,0,0,1-1.409-.414c-3.3-2.115-6.565-4.262-9.7-6.383a2.616,2.616,0,0,1,2.93-4.335c3.1,2.1,6.331,4.221,9.6,6.313a2.617,2.617,0,0,1-1.414,4.82m-23.8-16.34a2.6,2.6,0,0,1-1.552-.512c-3.161-2.334-6.273-4.707-9.249-7.053a2.616,2.616,0,0,1,3.239-4.11c2.933,2.313,6,4.652,9.118,6.953a2.617,2.617,0,0,1-1.556,4.721m-22.5-18.081a2.608,2.608,0,0,1-1.728-.652c-2.963-2.608-5.853-5.259-8.591-7.879a2.616,2.616,0,0,1,3.618-3.78c2.686,2.57,5.522,5.172,8.431,7.732a2.616,2.616,0,0,1-1.73,4.58M286.159,432a2.608,2.608,0,0,1-1.942-.863c-2.655-2.94-5.21-5.933-7.592-8.9a2.616,2.616,0,0,1,4.077-3.279c2.321,2.884,4.81,5.8,7.4,8.668A2.616,2.616,0,0,1,286.159,432m-17.676-22.784a2.613,2.613,0,0,1-2.2-1.191c-2.171-3.337-4.2-6.733-6.019-10.092a2.616,2.616,0,1,1,4.6-2.5c1.758,3.237,3.711,6.513,5.807,9.735a2.617,2.617,0,0,1-2.191,4.043M255.359,383.57a2.618,2.618,0,0,1-2.451-1.7,111.323,111.323,0,0,1-3.555-11.272,2.616,2.616,0,0,1,5.068-1.3,105.918,105.918,0,0,0,3.387,10.74,2.618,2.618,0,0,1-2.45,3.533m-6.3-28.068a2.617,2.617,0,0,1-2.606-2.423c-.174-2.348-.263-4.73-.263-7.076,0-1.587.04-3.2.121-4.789a2.616,2.616,0,0,1,5.226.265c-.076,1.5-.114,3.025-.114,4.524,0,2.218.084,4.468.249,6.689a2.617,2.617,0,0,1-2.415,2.8c-.066,0-.132.007-.2.007m2.349-28.646a2.619,2.619,0,0,1-2.546-3.229,101.817,101.817,0,0,1,3.445-11.323,2.616,2.616,0,0,1,4.91,1.81,96.435,96.435,0,0,0-3.268,10.738,2.617,2.617,0,0,1-2.541,2m47.452-7.612c-2.985,0-5.984-.059-8.914-.175a2.616,2.616,0,1,1,.208-5.229c3.745.149,7.584.2,11.41.156a2.616,2.616,0,0,1,.064,5.232q-1.387.017-2.768.016m20.046-.864a2.616,2.616,0,0,1-.221-5.223c3.79-.324,7.613-.745,11.366-1.251a2.616,2.616,0,1,1,.7,5.185c-3.835.517-7.744.948-11.618,1.279-.076.007-.151.01-.226.01m-46.129-.722a2.638,2.638,0,0,1-.331-.021c-3.955-.5-7.852-1.122-11.584-1.849a2.616,2.616,0,1,1,1-5.136c3.619.7,7.4,1.308,11.24,1.794a2.616,2.616,0,0,1-.325,5.212m74.7-3.495a2.616,2.616,0,0,1-.541-5.176c3.757-.8,7.491-1.7,11.1-2.669a2.616,2.616,0,1,1,1.363,5.052c-3.7,1-7.527,1.918-11.376,2.735a2.616,2.616,0,0,1-.546.058m-102.9-2.634a2.626,2.626,0,0,1-.814-.13,111.305,111.305,0,0,1-11.04-4.249,2.616,2.616,0,1,1,2.148-4.771,105.85,105.85,0,0,0,10.519,4.047,2.617,2.617,0,0,1-.813,5.1m130.654-5.33a2.616,2.616,0,0,1-.912-5.069c3.633-1.352,7.166-2.812,10.5-4.341a2.616,2.616,0,1,1,2.181,4.756c-3.451,1.583-7.1,3.093-10.857,4.489a2.608,2.608,0,0,1-.912.165m-113.2-6.068a2.617,2.617,0,0,1-2.279-3.9c1.89-3.363,4-6.727,6.266-10a2.616,2.616,0,1,1,4.3,2.98c-2.176,3.14-4.2,6.364-6.006,9.585a2.615,2.615,0,0,1-2.282,1.335m-43.188-1.443a2.6,2.6,0,0,1-1.572-.527,58.273,58.273,0,0,1-8.867-8.185,2.616,2.616,0,1,1,3.944-3.438,53.05,53.05,0,0,0,8.072,7.445,2.616,2.616,0,0,1-1.576,4.706m182.3-5.153a2.616,2.616,0,0,1-1.415-4.819,90.581,90.581,0,0,0,9.069-6.608,2.616,2.616,0,1,1,3.349,4.02,95.889,95.889,0,0,1-9.594,6.992,2.6,2.6,0,0,1-1.41.414M278.938,276.746a2.616,2.616,0,0,1-1.949-4.361c2.566-2.866,5.313-5.712,8.165-8.459a2.616,2.616,0,1,1,3.63,3.768c-2.759,2.659-5.416,5.411-7.9,8.181a2.611,2.611,0,0,1-1.95.871m-77.146-.759a2.617,2.617,0,0,1-2.484-1.8A45.8,45.8,0,0,1,197.1,262.2a2.616,2.616,0,0,1,5.226-.269,40.553,40.553,0,0,0,1.954,10.62,2.617,2.617,0,0,1-2.485,3.436m220.517-1.836a2.617,2.617,0,0,1-2.133-4.127,46.626,46.626,0,0,0,5.252-9.558,2.616,2.616,0,0,1,4.857,1.944,51.869,51.869,0,0,1-5.838,10.636,2.613,2.613,0,0,1-2.138,1.105M300.054,257.045a2.616,2.616,0,0,1-1.62-4.672c3.031-2.385,6.2-4.726,9.429-6.956a2.616,2.616,0,0,1,2.976,4.3c-3.138,2.17-6.223,4.446-9.169,6.765a2.606,2.606,0,0,1-1.616.561m-98.385-9.507a2.619,2.619,0,0,1-2.532-3.283,84.2,84.2,0,0,1,3.885-11.263,2.616,2.616,0,1,1,4.819,2.036,79.044,79.044,0,0,0-3.645,10.56,2.617,2.617,0,0,1-2.528,1.95m229.588-.381h-.032a2.616,2.616,0,0,1-2.585-2.647l0-.409a26.025,26.025,0,0,0-1.776-9.866,2.616,2.616,0,0,1,4.844-1.979,31.227,31.227,0,0,1,2.165,11.854l0,.462a2.616,2.616,0,0,1-2.615,2.585m-107.223-6.183a2.616,2.616,0,0,1-1.294-4.892c3.388-1.923,6.872-3.767,10.355-5.482a2.616,2.616,0,0,1,2.311,4.695c-3.392,1.669-6.785,3.465-10.084,5.337a2.6,2.6,0,0,1-1.289.341m26.106-12.351a2.616,2.616,0,0,1-.935-5.06c3.7-1.416,7.438-2.7,11.1-3.825a2.616,2.616,0,1,1,1.533,5c-3.549,1.087-7.171,2.336-10.764,3.709a2.612,2.612,0,0,1-.934.173m67.468-5.024a2.6,2.6,0,0,1-1.184-.285,37.23,37.23,0,0,0-10.234-3.294,2.616,2.616,0,0,1,.932-5.149,42.446,42.446,0,0,1,11.674,3.779,2.616,2.616,0,0,1-1.188,4.949m-204.192-2.335a2.617,2.617,0,0,1-2.229-3.981c1.953-3.194,4.136-6.485,6.489-9.78a2.616,2.616,0,0,1,4.258,3.041c-2.281,3.194-4.395,6.38-6.283,9.469a2.616,2.616,0,0,1-2.235,1.252m164.494-.513a2.616,2.616,0,0,1-.453-5.193,111.3,111.3,0,0,1,11.745-1.466,2.616,2.616,0,0,1,.357,5.22,106.051,106.051,0,0,0-11.189,1.4,2.641,2.641,0,0,1-.46.04m-147.5-22.81a2.616,2.616,0,0,1-2.01-4.289c2.481-2.981,5.061-5.941,7.668-8.794a2.616,2.616,0,0,1,3.863,3.529c-2.553,2.8-5.079,5.692-7.508,8.612a2.61,2.61,0,0,1-2.012.943m19.709-21.074a2.616,2.616,0,0,1-1.8-4.511c2.8-2.668,5.709-5.308,8.637-7.847a2.616,2.616,0,0,1,3.427,3.953c-2.867,2.486-5.712,5.071-8.457,7.684a2.608,2.608,0,0,1-1.8.721m22.02-18.654a2.616,2.616,0,0,1-1.576-4.706c3.08-2.32,6.268-4.611,9.475-6.808A2.616,2.616,0,0,1,283,151.017c-3.143,2.153-6.267,4.4-9.284,6.67a2.6,2.6,0,0,1-1.572.527m23.988-16.052a2.616,2.616,0,0,1-1.336-4.867c3.316-1.964,6.733-3.892,10.157-5.731a2.616,2.616,0,1,1,2.475,4.61c-3.36,1.8-6.713,3.7-9.965,5.622a2.606,2.606,0,0,1-1.331.366m25.573-13.4a2.616,2.616,0,0,1-1.1-4.993c3.492-1.608,7.085-3.179,10.681-4.667a2.616,2.616,0,0,1,2,4.834c-3.533,1.463-7.063,3.005-10.494,4.586a2.6,2.6,0,0,1-1.093.24m26.779-10.8a2.617,2.617,0,0,1-.864-5.086c3.622-1.268,7.344-2.5,11.062-3.652a2.616,2.616,0,1,1,1.552,5c-3.659,1.137-7.321,2.346-10.885,3.593a2.6,2.6,0,0,1-.864.148m27.653-8.341a2.617,2.617,0,0,1-.646-5.151c3.722-.952,7.532-1.862,11.324-2.7a2.616,2.616,0,1,1,1.133,5.108c-3.737.829-7.492,1.726-11.16,2.664a2.632,2.632,0,0,1-.65.082m28.249-6.043a2.616,2.616,0,0,1-.445-5.194c3.78-.658,7.647-1.271,11.494-1.823a2.616,2.616,0,0,1,.744,5.179c-3.8.546-7.612,1.151-11.341,1.8a2.634,2.634,0,0,1-.452.039m28.63-3.909a2.616,2.616,0,0,1-.258-5.22c3.822-.384,7.722-.722,11.59-1a2.616,2.616,0,1,1,.38,5.219c-3.821.278-7.672.612-11.447.992-.089.009-.177.013-.265.013m69.275-1.325c-.056,0-.111,0-.167-.005-3.749-.237-7.607-.425-11.465-.558a2.616,2.616,0,0,1,.181-5.229c3.908.135,7.816.325,11.615.566a2.616,2.616,0,0,1-.163,5.227m-40.437-.585a2.616,2.616,0,0,1-.083-5.231c3.855-.126,7.769-.2,11.631-.224h.016a2.616,2.616,0,0,1,.015,5.232c-3.817.023-7.683.1-11.493.221h-.087" transform="translate(-104.397 -48.892)" fill="gray"></path> <path id="Path_45118" data-name="Path 45118" d="M671.016,1004.859a2.609,2.609,0,0,1-1.123-.254q-2.652-1.263-5.257-2.525a2.616,2.616,0,1,1,2.281-4.709q2.589,1.255,5.225,2.509a2.617,2.617,0,0,1-1.126,4.979" transform="translate(-351.265 -528.152)" fill="gray"></path> <path id="Path_45119" data-name="Path 45119" d="M623.9,585.067H541.382a6.95,6.95,0,0,0-6.863,5.156l-10.994,46.059-184.377-1.237a7.458,7.458,0,0,0-.792-.045c-.243,0-.484.012-.721.034L135.85,633.681H135.8a7.217,7.217,0,0,0-5.475,2.457,6.3,6.3,0,0,0-1.387,5.588L153.5,744.386l0,.008,24.434,102.125a6.951,6.951,0,0,0,6.862,5.154h.005l224.806-.167a7.449,7.449,0,0,0,1.513.339,7.537,7.537,0,0,0,.857.049,7.4,7.4,0,0,0,2.365-.391l57.821-.043-9.2,38.527H192.7a6.613,6.613,0,1,0,0,13.2H468.6a6.951,6.951,0,0,0,6.863-5.157l12.372-51.833.005-.022,24.25-101.6c0-.008,0-.016.006-.024l23.756-99.525a6.217,6.217,0,0,0,.327-1.37l10.834-45.392H623.9a6.612,6.612,0,1,0,0-13.2M499.574,736.625l-66.446-.032,11.347-87.642,75.9.509ZM345.389,838.355V749.75l71.861.034L405.79,838.311Zm-77.575.058-11.479-88.706,74.988.036v88.623ZM254.626,736.508,243.12,647.6l88.2.592v88.353Zm90.763.043V648.285l84.928.57-11.358,87.731ZM228.939,647.5l11.517,89-74.436-.036L144.6,646.938Zm-59.76,102.161,72.986.035,11.482,88.723-63.22.047ZM419.961,838.3l11.459-88.509,65,.031-21.109,88.437Z" transform="translate(-68.205 -309.901)" fill="#c6c4c1"></path> <path id="Path_45120" data-name="Path 45120" d="M758.838,1316.224c0,16.6,14.345,30.062,32.039,30.062s32.039-13.459,32.039-30.062-14.345-30.062-32.039-30.062-32.039,13.46-32.039,30.062" transform="translate(-401.944 -681.259)" fill="#c6c4c1"></path> <path id="Path_45121" data-name="Path 45121" d="M801.888,1347.445c-12.276,0-22.262-9.37-22.262-20.889s9.987-20.888,22.262-20.888,22.263,9.37,22.263,20.888-9.987,20.889-22.263,20.889" transform="translate(-412.955 -691.591)" fill="#7c7a77"></path> <path id="Path_45122" data-name="Path 45122" d="M264.7,1316.224c0,16.6,14.345,30.062,32.039,30.062s32.039-13.459,32.039-30.062-14.345-30.062-32.039-30.062-32.039,13.46-32.039,30.062" transform="translate(-140.209 -681.259)" fill="#c6c4c1"></path> <path id="Path_45123" data-name="Path 45123" d="M307.753,1347.445c-12.276,0-22.262-9.37-22.262-20.889s9.987-20.888,22.262-20.888,22.263,9.37,22.263,20.888-9.987,20.889-22.263,20.889" transform="translate(-151.22 -691.591)" fill="#7c7a77"></path> <path id="Path_45124" data-name="Path 45124" d="M1160.4,596.693h-70.187a11.835,11.835,0,0,1-11.835-11.835v-.64a11.835,11.835,0,0,1,11.835-11.835H1160.4a11.835,11.835,0,0,1,11.835,11.835v.64a11.835,11.835,0,0,1-11.835,11.835" transform="translate(-571.201 -303.183)" fill="#7c7a77"></path> <path id="Path_45125" data-name="Path 45125" d="M1008.991,47.48c-6.827,1.146-15.022-8.532-18.3-21.618s-.409-24.623,6.418-25.77,15.022,8.532,18.3,21.619.409,24.623-6.418,25.769" transform="translate(-524.032 0)" fill="#999"></path> <path id="Path_45126" data-name="Path 45126" d="M958.773,91.3c.655-6.316,13.577-9.861,28.861-7.917s27.144,8.639,26.489,14.955-13.578,9.86-28.862,7.917S958.118,97.614,958.773,91.3" transform="translate(-507.833 -43.884)" fill="#999"></path> <path id="Path_45127" data-name="Path 45127" d="M1024.885,54.15c-6.568-2.492-7.769-14.438-2.682-26.683s14.534-20.152,21.1-17.66,7.769,14.438,2.682,26.683-14.534,20.152-21.1,17.66" transform="translate(-539.776 -4.951)" fill="#ccc"></path> <path id="Path_45128" data-name="Path 45128" d="M1070.62,103.05c-1.332,1.651-4.2,1.763-6.4.248s-2.91-4.081-1.577-5.732,4.2-1.763,6.4-.248,2.91,4.081,1.577,5.732" transform="translate(-562.507 -50.982)" fill="gray"></path> <path id="Path_45129" data-name="Path 45129" d="M995.344,125.617a.481.481,0,0,1,.345-.882c7.121.668,21.179-9.572,22.271-10.538a.583.583,0,0,1,.769.026.464.464,0,0,1,.008.7c-.133.117-14.917,11.565-23.11,10.8a.592.592,0,0,1-.283-.1" transform="translate(-527.096 -60.418)" fill="#999"></path> <path id="Path_45130" data-name="Path 45130" d="M961.8,118.12a.493.493,0,0,1-.218-.512.521.521,0,0,1,.642-.358c6.986,1.6,22.627-6.6,23.87-7.4a.588.588,0,0,1,.761.127.458.458,0,0,1-.1.688c-.151.1-16.71,9.386-24.746,7.544a.6.6,0,0,1-.2-.089" transform="translate(-509.33 -58.139)" fill="#999"></path> <path id="Path_45131" data-name="Path 45131" d="M1010.641,130.089a.482.482,0,0,1,.346-.883c7.121.668,21.179-9.571,22.271-10.537a.582.582,0,0,1,.768.025.464.464,0,0,1,.008.7c-.133.117-14.918,11.565-23.11,10.8a.6.6,0,0,1-.283-.1" transform="translate(-535.199 -62.786)" fill="#999"></path> <path id="Path_45132" data-name="Path 45132" d="M976.323,124.545a.493.493,0,0,1-.218-.512.521.521,0,0,1,.642-.358c6.986,1.6,22.628-6.6,23.87-7.4a.588.588,0,0,1,.761.127.459.459,0,0,1-.1.688c-.151.1-16.71,9.386-24.747,7.544a.6.6,0,0,1-.2-.089" transform="translate(-517.021 -61.543)" fill="#999"></path> <path id="Path_45133" data-name="Path 45133" d="M976,861.6A82.554,82.554,0,1,1,893.45,779.05,82.554,82.554,0,0,1,976,861.6" transform="translate(-429.519 -412.65)" fill="#f0852a"></path> <path id="Path_45134" data-name="Path 45134" d="M973.091,948.52a11.341,11.341,0,0,1-11.341-11.341V863.855a11.341,11.341,0,1,1,22.682,0v73.323a11.341,11.341,0,0,1-11.341,11.341" transform="translate(-509.423 -451.563)" fill="#fff"></path> <path id="Path_45135" data-name="Path 45135" d="M968.463,953.147H895.141a11.341,11.341,0,1,1,0-22.682h73.323a11.341,11.341,0,0,1,0,22.682" transform="translate(-468.134 -492.852)" fill="#fff"></path></g></svg>