<svg xmlns="http://www.w3.org/2000/svg" width="22.372" height="25.568" viewBox="0 0 22.372 25.568">
  <path id="Icon_metro-attachment" data-name="Icon metro-attachment" d="M19.361,10.094,17.739,8.473l-8.11,8.108a3.44,3.44,0,1,0,4.866,4.865l9.732-9.73a5.734,5.734,0,1,0-8.109-8.108L5.9,13.824l-.022.021a8,8,0,0,0,11.31,11.308l.02-.022h0l6.975-6.974-1.623-1.621-6.974,6.973-.021.021A5.7,5.7,0,0,1,7.5,15.468l.022-.021h0L17.739,5.229a3.44,3.44,0,1,1,4.866,4.865l-9.732,9.73A1.147,1.147,0,1,1,11.251,18.2l8.11-8.109Z" transform="translate(-3.535 -1.928)"/>
</svg>
