<?xml version="1.0" encoding="UTF-8"?><svg id="Layer_1" xmlns="http://www.w3.org/2000/svg" viewBox="0 0 45 45"><defs><style>.cls-1{fill:#fff;}.cls-2{fill:none;}</style></defs><rect class="cls-2" width="45" height="45"/><path id="shopping_cart_FILL0_wght400_GRAD0_opsz48" class="cls-1" d="M17.77,34.5c-.57,0-1.13-.22-1.52-.63-.41-.4-.64-.96-.63-1.53,0-1.19,.96-2.15,2.15-2.16,.58,0,1.13,.22,1.53,.63,.85,.83,.86,2.18,.04,3.03,0,0-.02,.02-.03,.03-.4,.41-.95,.64-1.53,.63Zm12.01,0c-.57,0-1.13-.22-1.52-.63-.41-.4-.64-.96-.63-1.53,0-1.19,.96-2.15,2.15-2.16,.58,0,1.13,.22,1.53,.63,.85,.83,.86,2.18,.04,3.03,0,0-.02,.02-.03,.03-.4,.41-.95,.64-1.53,.63h0ZM16.21,14.68l3.3,6.85h8.65l3.75-6.85h-15.7Zm1.26,13.57c-.71,.06-1.4-.26-1.81-.84-.37-.58-.37-1.32,.02-1.89l1.92-3.54-4.56-9.67h-1.47c-.23,0-.46-.1-.62-.27-.17-.17-.26-.41-.25-.65,0-.24,.09-.47,.26-.63,.17-.17,.4-.26,.64-.25h2.04c.17,0,.34,.04,.49,.13,.14,.09,.26,.22,.32,.38l.87,1.86h17.69c.64,0,1.05,.2,1.22,.59,.17,.44,.1,.93-.17,1.31l-4.05,7.3c-.21,.35-.5,.66-.84,.89-.34,.24-.75,.38-1.17,.38h-9.1l-1.68,3.12h13.87c.23,0,.46,.1,.62,.27,.17,.17,.26,.41,.25,.65,0,.24-.09,.47-.26,.63-.17,.17-.4,.26-.64,.25h-13.57Zm2.04-6.73h0Z"/></svg>